<svg width="791" height="813" viewBox="0 0 791 813" fill="none" xmlns="http://www.w3.org/2000/svg">
<line y1="-7.5" x2="70.8235" y2="-7.5" transform="matrix(0.980466 -0.196688 0.201028 0.979586 19.1212 28.9302)" stroke="white" stroke-width="15"/>
<line y1="-7.5" x2="133.006" y2="-7.5" transform="matrix(0.99995 0.0100178 -0.010248 0.999947 156.995 27.9351)" stroke="white" stroke-width="15"/>
<line y1="-7.5" x2="126.272" y2="-7.5" transform="matrix(0.996236 0.0866784 -0.088655 0.996062 319.022 27.9351)" stroke="white" stroke-width="15"/>
<line y1="-7.5" x2="74.7951" y2="-7.5" transform="matrix(-0.0672757 0.997734 -0.997835 -0.0657708 16.1021 19.9751)" stroke="white" stroke-width="15"/>
<line y1="-7.5" x2="154.344" y2="-7.5" transform="matrix(0.039122 0.999234 -0.999268 0.0382444 765.853 15)" stroke="white" stroke-width="15"/>
<line y1="-7.5" x2="133.006" y2="-7.5" transform="matrix(0.99995 0.0100178 -0.010248 0.999947 471.991 25.9451)" stroke="white" stroke-width="15"/>
<line y1="-7.5" x2="99.6761" y2="-7.5" transform="matrix(0.999551 -0.0299473 0.0306349 0.999531 127.81 811.007)" stroke="white" stroke-width="15"/>
<line y1="-7.5" x2="35.2794" y2="-7.5" transform="matrix(0.998408 0.0564073 -0.0576995 0.998334 14.0893 807.027)" stroke="white" stroke-width="15"/>
<line y1="-7.5" x2="155.607" y2="-7.5" transform="matrix(0.995985 -0.0895212 0.0915616 0.995799 289.837 811.007)" stroke="white" stroke-width="15"/>
<line y1="-7.5" x2="133.006" y2="-7.5" transform="matrix(0.99995 0.0100178 -0.010248 0.999947 511.24 811.007)" stroke="white" stroke-width="15"/>
<line y1="-7.5" x2="119.254" y2="-7.5" transform="matrix(0.987354 -0.158528 0.162077 0.986778 671.254 806.032)" stroke="white" stroke-width="15"/>
<line y1="-7.5" x2="150.583" y2="-7.5" transform="matrix(0.0668321 0.997764 -0.997863 0.0653371 0 655.785)" stroke="white" stroke-width="15"/>
<line y1="-7.5" x2="131.504" y2="-7.5" transform="matrix(-0.0182595 0.999833 -0.999841 -0.0178494 14.9604 133.406)" stroke="white" stroke-width="15"/>
<line y1="-7.5" x2="124.412" y2="-7.5" transform="matrix(0.0162565 0.999868 -0.999874 0.0158913 13.6768 293.597)" stroke="white" stroke-width="15"/>
<line x1="781.5" y1="231" x2="781.5" y2="418" stroke="white" stroke-width="15"/>
<line y1="-7.5" x2="141.722" y2="-7.5" transform="matrix(-0.0639096 0.997956 -0.998046 -0.0624795 19.1212 469.719)" stroke="white" stroke-width="15"/>
<line y1="-7.5" x2="141.337" y2="-7.5" transform="matrix(-0.0255633 0.999673 -0.999688 -0.0249893 775.505 469.719)" stroke="white" stroke-width="15"/>
<line y1="-7.5" x2="131.504" y2="-7.5" transform="matrix(-0.0182595 0.999833 -0.999841 -0.0178494 774.293 655.791)" stroke="white" stroke-width="15"/>
<line y1="-7.5" x2="133.881" y2="-7.5" transform="matrix(0.999757 0.0220442 -0.0225506 0.999746 644.082 25.9451)" stroke="white" stroke-width="15"/>
</svg>
