<svg width="495" height="573" viewBox="0 0 495 573" fill="none" xmlns="http://www.w3.org/2000/svg">
<path d="M483.469 4.46875L480.913 2.89896L483.469 4.46875ZM491.469 105.969L493.965 104.305L491.469 105.969ZM395.969 30.4692L394.325 32.9786L394.775 33.2735L395.3 33.3936L395.969 30.4692ZM474.694 10.4237C476.05 9.47114 476.377 7.59996 475.424 6.24433C474.471 4.88871 472.6 4.562 471.245 5.5146L474.694 10.4237ZM3.90931 572.023C112.299 495.321 181.588 378.338 213.715 283.763C229.767 236.509 236.641 194.561 234.31 165.841C233.149 151.544 229.671 140.029 223.408 132.889C220.228 129.263 216.328 126.77 211.736 125.684C207.169 124.604 202.128 124.965 196.709 126.685L198.524 132.404C203.16 130.933 207.074 130.748 210.355 131.523C213.61 132.293 216.452 134.057 218.897 136.846C223.888 142.535 227.206 152.481 228.329 166.326C230.566 193.89 223.959 234.951 208.033 281.833C176.205 375.531 107.554 491.328 0.443406 567.126L3.90931 572.023ZM196.709 126.685C186.223 130.013 179.412 135.349 176.824 142.118C174.198 148.988 176.292 156.325 181.39 162.72C191.506 175.409 214.367 185.863 244.694 186.455C305.744 187.647 398.176 149.109 486.026 6.03854L480.913 2.89896C393.763 144.83 303.048 181.594 244.811 180.456C215.495 179.884 194.678 169.764 186.082 158.98C181.824 153.639 180.803 148.514 182.429 144.261C184.093 139.907 188.9 135.458 198.524 132.404L196.709 126.685ZM486.026 6.03854C486.172 5.80036 486.204 5.77954 486.138 5.85293C486.112 5.8823 485.951 6.06357 485.664 6.24598C485.418 6.40157 484.623 6.84704 483.54 6.61288C482.348 6.35536 481.77 5.50054 481.565 5.08595C481.37 4.69154 481.33 4.36903 481.322 4.30386C481.301 4.14287 481.32 4.11403 481.302 4.34975C481.228 5.27961 480.874 7.22043 480.304 10.2887C479.203 16.2229 477.477 25.5076 476.43 36.3687C474.353 57.9251 474.862 86.4663 488.973 107.633L493.965 104.305C481.077 84.9721 480.348 58.2631 482.403 36.9442C483.422 26.3677 485.104 17.3086 486.203 11.3833C486.734 8.52186 487.178 6.15404 487.283 4.82021C487.309 4.49001 487.333 4.02305 487.275 3.55837C487.248 3.34136 487.178 2.90062 486.941 2.42241C486.694 1.92402 486.064 1.01983 484.807 0.748213C483.658 0.499952 482.785 0.966582 482.45 1.17943C482.072 1.41909 481.808 1.69371 481.666 1.85334C481.367 2.18726 481.112 2.57464 480.913 2.89896L486.026 6.03854ZM488.973 107.633C488.952 107.602 488.883 107.497 488.809 107.336C488.758 107.225 488.571 106.811 488.557 106.228C488.54 105.504 488.82 104.39 489.898 103.687C490.729 103.146 491.533 103.202 491.746 103.222C492.042 103.248 492.253 103.316 492.321 103.339C492.41 103.368 492.464 103.392 492.472 103.396C492.486 103.403 492.445 103.384 492.329 103.318C491.842 103.04 490.923 102.432 489.556 101.465C486.874 99.5686 482.828 96.5495 477.875 92.7714C467.982 85.2254 454.588 74.7386 441.522 64.3693C428.456 53.9997 415.738 43.7629 407.199 36.7177C402.914 33.1825 399.73 30.4904 398.076 28.9898C397.663 28.6144 397.38 28.3456 397.211 28.1732C397.123 28.0829 397.104 28.0583 397.124 28.0819C397.132 28.0925 397.184 28.1558 397.25 28.2582C397.283 28.3093 397.485 28.6165 397.602 29.0804C397.704 29.4853 397.962 31.1542 396.421 32.2334C395.831 32.6462 395.249 32.7398 394.933 32.7623C394.604 32.7857 394.345 32.7481 394.208 32.7229C393.936 32.673 393.749 32.5959 393.707 32.5791C393.672 32.5645 393.646 32.5529 393.633 32.5466C393.631 32.5456 393.617 32.539 393.617 32.539C393.618 32.5395 393.609 32.5351 393.612 32.5366C393.616 32.5384 393.611 32.5359 393.616 32.5387C393.622 32.5418 393.621 32.5411 393.628 32.5451C393.638 32.5508 393.653 32.5588 393.672 32.5695C393.71 32.5911 393.76 32.6205 393.823 32.6592C393.951 32.7371 394.117 32.8421 394.325 32.9786L397.613 27.9598C397.151 27.6571 396.708 27.381 396.344 27.1946C396.243 27.1429 395.817 26.9182 395.292 26.8217C395.131 26.792 394.852 26.7529 394.506 26.7775C394.174 26.8012 393.579 26.8987 392.98 27.3182C391.419 28.4107 391.673 30.1037 391.783 30.5436C391.909 31.0423 392.134 31.3952 392.203 31.5024C392.305 31.661 392.406 31.7909 392.478 31.8786C392.623 32.0562 392.783 32.2269 392.925 32.3719C393.217 32.6699 393.601 33.031 394.044 33.433C395.817 35.0417 399.105 37.8184 403.38 41.3457C411.961 48.4255 424.712 58.6887 437.792 69.0691C450.872 79.4497 464.3 89.963 474.236 97.5419C479.197 101.326 483.316 104.401 486.092 106.364C487.454 107.327 488.586 108.09 489.354 108.528C489.552 108.641 489.775 108.761 490.002 108.864C490.135 108.924 490.612 109.144 491.208 109.197C491.474 109.221 492.319 109.272 493.176 108.713C494.28 107.993 494.573 106.851 494.555 106.087C494.541 105.464 494.339 104.999 494.259 104.825C494.156 104.602 494.044 104.422 493.965 104.305L488.973 107.633ZM395.3 33.3936C416.632 38.2767 431.921 35.869 444.306 30.4011C456.416 25.0547 465.82 16.6599 474.694 10.4237L471.245 5.5146C461.619 12.2785 453.273 19.8837 441.883 24.9123C430.768 29.8194 416.807 32.1617 396.639 27.5449L395.3 33.3936Z" fill="#F7E32C"/>
</svg>
