<svg width="341" height="546" viewBox="0 0 341 546" fill="none" xmlns="http://www.w3.org/2000/svg">
<path d="M256.762 172.281C146.355 207.057 395.906 266.53 320.425 334.203V334.203C293.126 358.678 296.171 371.36 314.245 403.26L333.853 437.867C360.868 485.547 304.588 537.896 258.609 508.078C152.269 439.115 49.8842 376.052 107.344 427.815C150.104 466.335 141.02 500.18 114.855 526.885C68.813 573.878 -0.228318 523.219 0.383074 457.433L2.82833 194.32C3.0534 170.102 12.3298 146.845 28.8337 129.12L70.7075 84.1488C96.0246 56.959 134.594 47.396 171.363 52.7111C215.901 59.1492 269.208 58.1731 268.86 16.5002C268.263 -55.0012 367.169 137.506 256.762 172.281Z" fill="#F9D03B"/>
</svg>
