<svg width="267" height="258" viewBox="0 0 267 258" fill="none" xmlns="http://www.w3.org/2000/svg">
<rect x="24" y="119.553" width="93.9124" height="5.95199" rx="2" transform="rotate(-44.0185 24 119.553)" fill="#808080"/>
<rect x="24" y="121.435" width="174.754" height="3" rx="1.5" transform="rotate(-44.0185 24 121.435)" fill="#808080"/>
<path d="M18 115V85C18 79.4772 22.4772 75 28 75H240C245.523 75 250 79.4772 250 85V115" stroke="#A1C3D3" stroke-width="5"/>
<rect x="199" y="100" width="22" height="10" rx="2" fill="#519BF4"/>
<rect x="101" y="103" width="13" height="7" rx="2" fill="#519BF4"/>
<rect x="84" y="103" width="13" height="7" rx="2" fill="#519BF4"/>
<rect x="67" y="103" width="13" height="7" rx="2" fill="#519BF4"/>
<rect x="24" y="108" width="219" height="13" rx="2" fill="#3C79C2"/>
<rect y="115" width="267" height="143" rx="10" fill="#A1C3D3"/>
<path d="M0 125C0 119.477 4.47715 115 10 115H257C262.523 115 267 119.477 267 125V149H131H0V125Z" fill="#519BF4"/>
<path d="M97 165C97 159.477 101.477 155 107 155H161C166.523 155 171 159.477 171 165V258H133.307H97V165Z" fill="#3C3B39"/>
<rect x="105" y="185" width="57" height="59" fill="#DCDEDB"/>
<circle cx="50" cy="204" r="40" fill="#3C79C2"/>
<circle cx="218" cy="204" r="40" fill="#3C79C2"/>
<circle cx="217.5" cy="203.5" r="30.5" fill="#3C3B39"/>
<circle cx="217.5" cy="203.5" r="7.5" fill="#3C79C2"/>
<circle cx="49.5" cy="203.5" r="30.5" fill="#3C3B39"/>
<circle cx="49.5" cy="203.5" r="7.5" fill="#3C79C2"/>
<rect x="97" y="164" width="74" height="10" fill="#3C79C2"/>
<rect x="109" y="198" width="49" height="25" fill="#519BF4"/>
<circle cx="116.5" cy="235.5" r="4.5" fill="#3C79C2"/>
<circle cx="133.5" cy="235.5" r="4.5" fill="#3C79C2"/>
<circle cx="150.5" cy="235.5" r="4.5" fill="#3C79C2"/>
<rect x="112" y="235" width="9" height="9" fill="#3C79C2"/>
<rect x="129" y="235" width="9" height="9" fill="#3C79C2"/>
<rect x="146" y="235" width="9" height="9" fill="#3C79C2"/>
<rect x="33" y="66" width="202" height="15" rx="2" fill="#3C79C2"/>
</svg>
