<svg width="2001" height="481" viewBox="0 0 2001 481" fill="none" xmlns="http://www.w3.org/2000/svg">
    <path d="M0.5 239.791C510.213 241.5 893.5 240.5 927.5 259C961.5 277.5 968.034 319.291 978.8 239.791C986.113 185.791 1013.84 124.791 1037.2 239.791C1062.29 363.291 1096.38 515.791 1095.6 239.791C1111.17 -36.2094 1142.47 147.791 1154 239.791C1171.63 380.457 1191.1 380.457 1212.4 239.791C1227.97 99.1239 1256.99 97.8676 1270.8 239.791C1308.5 627.291 1321.04 469.791 1329.2 239.791C1342.57 -137.209 1369.14 2.79062 1392.5 232.791C1413.17 436.291 1434.27 303.417 1446 239.791C1462.5 150.291 1481 68.2906 1504.4 239.791C1540.13 501.669 1552.32 412.791 1562.8 239.791C1565.56 194.291 1599.09 -1.70938 1621.2 239.791C1644.39 493.124 1653.9 347.791 1671 269.791C1684.06 210.206 1717.5 239.791 1762 239.791C1806.5 239.791 1858 239.791 2000.5 239.791" stroke="white" stroke-width="12"/>
</svg>
