<svg width="940" height="1088" viewBox="0 0 940 1088" fill="none" xmlns="http://www.w3.org/2000/svg">
<path d="M210.475 67.9441C187.314 42.2183 205.548 1.21407 240.164 1.18059L647.117 0.786997L900.474 4.11214C922.358 4.39936 939.949 22.222 939.949 44.1087L939.949 470.157L939.949 1047.56C939.949 1094.49 873.084 1103.07 861.243 1057.65L789.287 781.693C769.651 706.387 675.308 681.384 620.954 737.082L455.849 906.266C403.601 959.806 313.003 918.734 318.838 844.153L334.547 643.367C336.045 624.219 323.722 606.71 305.192 601.657L30.3232 526.698C-5.06274 517.048 -9.88557 468.834 22.8878 452.366L343.493 291.269C367.076 279.419 372.92 248.379 355.261 228.764L210.475 67.9441Z" fill="#F673A2"/>
</svg>
